<svg width="131" height="42" viewBox="0 0 131 42" fill="none" xmlns="http://www.w3.org/2000/svg">
<rect x="0.5" y="0.5" width="130" height="41" fill="#A90000"/>
<rect x="0.5" y="0.5" width="130" height="41" stroke="white"/>
<path d="M13.1136 29V11.5455H19.0114C20.3807 11.5455 21.5 11.7926 22.3693 12.2869C23.2443 12.7756 23.892 13.4375 24.3125 14.2727C24.733 15.108 24.9432 16.0398 24.9432 17.0682C24.9432 18.0966 24.733 19.0312 24.3125 19.8722C23.8977 20.7131 23.2557 21.3835 22.3864 21.8835C21.517 22.3778 20.4034 22.625 19.0455 22.625H14.8182V20.75H18.9773C19.9148 20.75 20.6676 20.5881 21.2358 20.2642C21.804 19.9403 22.2159 19.5028 22.4716 18.9517C22.733 18.3949 22.8636 17.767 22.8636 17.0682C22.8636 16.3693 22.733 15.7443 22.4716 15.1932C22.2159 14.642 21.8011 14.2102 21.2273 13.8977C20.6534 13.5795 19.892 13.4205 18.9432 13.4205H15.2273V29H13.1136ZM42.3935 17H40.2798C40.1548 16.392 39.9361 15.858 39.6236 15.3977C39.3168 14.9375 38.9418 14.5511 38.4986 14.2386C38.0611 13.9205 37.5753 13.6818 37.0412 13.5227C36.5071 13.3636 35.9503 13.2841 35.3707 13.2841C34.3139 13.2841 33.3565 13.5511 32.4986 14.0852C31.6463 14.6193 30.9673 15.4062 30.4616 16.446C29.9616 17.4858 29.7116 18.7614 29.7116 20.2727C29.7116 21.7841 29.9616 23.0597 30.4616 24.0994C30.9673 25.1392 31.6463 25.9261 32.4986 26.4602C33.3565 26.9943 34.3139 27.2614 35.3707 27.2614C35.9503 27.2614 36.5071 27.1818 37.0412 27.0227C37.5753 26.8636 38.0611 26.6278 38.4986 26.3153C38.9418 25.9972 39.3168 25.608 39.6236 25.1477C39.9361 24.6818 40.1548 24.1477 40.2798 23.5455H42.3935C42.2344 24.4375 41.9446 25.2358 41.5241 25.9403C41.1037 26.6449 40.581 27.2443 39.956 27.7386C39.331 28.2273 38.6293 28.5994 37.8509 28.8551C37.0781 29.1108 36.2514 29.2386 35.3707 29.2386C33.8821 29.2386 32.5582 28.875 31.3991 28.1477C30.2401 27.4205 29.3281 26.3864 28.6634 25.0455C27.9986 23.7045 27.6662 22.1136 27.6662 20.2727C27.6662 18.4318 27.9986 16.8409 28.6634 15.5C29.3281 14.1591 30.2401 13.125 31.3991 12.3977C32.5582 11.6705 33.8821 11.3068 35.3707 11.3068C36.2514 11.3068 37.0781 11.4347 37.8509 11.6903C38.6293 11.946 39.331 12.321 39.956 12.8153C40.581 13.304 41.1037 13.9006 41.5241 14.6051C41.9446 15.304 42.2344 16.1023 42.3935 17ZM53.0362 19.3352V21.2102H45.3999V19.3352H53.0362ZM56.848 29V11.5455H58.9616V27.125H67.0753V29H56.848ZM72.1655 29H69.9496L76.3587 11.5455H78.5405L84.9496 29H82.7337L77.5178 14.3068H77.3814L72.1655 29ZM72.9837 22.1818H81.9155V24.0568H72.9837V22.1818ZM101.509 11.5455V29H99.4638L89.9524 15.2955H89.782V29H87.6683V11.5455H89.7138L99.2592 25.2841H99.4297V11.5455H101.509ZM111.125 29H105.739V11.5455H111.364C113.057 11.5455 114.506 11.8949 115.71 12.5938C116.915 13.2869 117.838 14.2841 118.48 15.5852C119.122 16.8807 119.443 18.4318 119.443 20.2386C119.443 22.0568 119.119 23.6222 118.472 24.9347C117.824 26.2415 116.881 27.2472 115.642 27.9517C114.403 28.6506 112.898 29 111.125 29ZM107.852 27.125H110.989C112.432 27.125 113.628 26.8466 114.577 26.2898C115.526 25.733 116.233 24.9403 116.699 23.9119C117.165 22.8835 117.398 21.6591 117.398 20.2386C117.398 18.8295 117.168 17.6165 116.707 16.5994C116.247 15.5767 115.56 14.7926 114.645 14.2472C113.73 13.696 112.591 13.4205 111.227 13.4205H107.852V27.125Z" fill="black"/>
</svg>
